<?xml version="1.0" encoding="utf-8"?>
<!-- Generator: Adobe Illustrator 17.0.0, SVG Export Plug-In . SVG Version: 6.00 Build 0)  -->
<!DOCTYPE svg PUBLIC "-//W3C//DTD SVG 1.1//EN" "http://www.w3.org/Graphics/SVG/1.1/DTD/svg11.dtd">
<svg version="1.1" id="Layer_1" xmlns="http://www.w3.org/2000/svg" xmlns:xlink="http://www.w3.org/1999/xlink" x="0px" y="0px"
	 width="160px" height="86px" viewBox="0 0 160 86" style="enable-background:new 0 0 160 86;" xml:space="preserve">
<style type="text/css">
	.st0{fill:#D4145A;}
</style>
<g>
	<path class="st0" d="M32,30.664c2.643-0.972,5.384-1.105,7.948-0.56c-0.467-4.394-2.146-8.936,2.305-14.564
		c-4.939,2.458-9.428,6.823-10.883,15.282c0.065,0.001,0.14,0.015,0.209,0.022C31.721,30.786,31.855,30.717,32,30.664z"/>
	<path class="st0" d="M49.966,38.001c3.578-4.843,2.058-6.476,7.124-11.276c-8.267,3.511-8.651,1.808-15.295,3.89
		C45.294,31.863,48.284,34.451,49.966,38.001z"/>
	<path class="st0" d="M65.8,39.408c-6.872,0.88-10.997,2.113-14.872,1.253c0.808,3.193,0.465,6.453-0.792,9.309
		C56.914,45.831,56.967,42.189,65.8,39.408z"/>
	<path class="st0" d="M24.236,37.495c1.138-2.17,2.82-4.057,4.957-5.426c-4.833-3.066-8.581-3.238-16.567-6.413
		C18.364,29.791,22.424,33.331,24.236,37.495z"/>
	<path class="st0" d="M49.49,51.261c-1.195,2.114-2.923,3.932-5.086,5.234c4.796,2.824,8.649,2.629,16.506,5.832
		C53.784,57.083,52.02,56.706,49.49,51.261z"/>
	<path class="st0" d="M42.411,57.484c-0.159,0.065-0.31,0.142-0.473,0.202c-2.197,0.808-4.462,1.033-6.638,0.777
		c0.615,4.069,1.084,6.289-0.365,13.186C38.652,64.09,40.958,62.466,42.411,57.484z"/>
	<path class="st0" d="M23.458,49.143c-1.032-2.807-1.134-5.727-0.464-8.426c-3.993,1.402-5.86,3.442-12.661,5.566
		c7.006-0.881,9.143,1.31,13.193,3.02C23.506,49.249,23.478,49.198,23.458,49.143z"/>
	<path class="st0" d="M25.3,52.585c-2.243,3.986-2.851,7.027-8.855,10.965c7.581-3.241,10.458-3.036,15.634-5.842
		C29.393,56.736,27.016,54.968,25.3,52.585z"/>
</g>
<path class="st0" d="M40.069,51.215v-5.754h-6.473v5.754h-2.918V37.509h2.918v5.384h6.473v-5.384h2.918v13.706H40.069z"/>
<path d="M77.641,46.672l-8.189-20.01h1.979l7.261,18.09l7.29-18.09h1.979l-8.19,20.01H77.641z"/>
<path d="M109.643,46.672l-1.98-4.92h-10.59l-1.98,4.92h-1.979l8.189-20.01h2.13l8.19,20.01H109.643z M102.353,28.492l-4.71,11.7
	h9.449L102.353,28.492z"/>
<path d="M119.932,46.672v-20.01h1.71v20.01H119.932z"/>
<path d="M133.475,46.672v-20.01h1.71v18.45h9.689v1.56H133.475z"/>
<g>
	<path d="M74.497,59.577l-1.44-2.422h-1.128v2.422h-1.138V53.09h2.849c1.284,0,2.12,0.836,2.12,2.033
		c0,1.158-0.758,1.78-1.537,1.906l1.586,2.548H74.497z M74.594,55.123c0-0.622-0.467-1.031-1.108-1.031h-1.557v2.062h1.557
		C74.127,56.154,74.594,55.746,74.594,55.123z"/>
	<path d="M77.876,59.577V53.09h4.445v1.002h-3.307v1.683h3.239v1.002h-3.239v1.799h3.307v1.002H77.876z"/>
	<path d="M84.046,58.663l0.632-0.875c0.448,0.477,1.147,0.895,2.052,0.895c0.934,0,1.304-0.457,1.304-0.886
		c0-1.361-3.784-0.515-3.784-2.908c0-1.069,0.944-1.896,2.364-1.896c1.012,0,1.828,0.32,2.432,0.904l-0.652,0.847
		c-0.506-0.506-1.196-0.739-1.877-0.739c-0.671,0-1.099,0.321-1.099,0.807c0,1.206,3.774,0.457,3.774,2.88
		c0,1.08-0.759,2.003-2.51,2.003C85.484,59.694,84.619,59.276,84.046,58.663z"/>
	<path d="M90.926,56.339c0-1.935,1.371-3.356,3.317-3.356c1.944,0,3.316,1.421,3.316,3.356c0,1.936-1.371,3.356-3.316,3.356
		C92.298,59.694,90.926,58.275,90.926,56.339z M96.392,56.339c0-1.342-0.846-2.344-2.149-2.344c-1.313,0-2.15,1.002-2.15,2.344
		c0,1.332,0.836,2.345,2.15,2.345C95.546,58.683,96.392,57.671,96.392,56.339z"/>
	<path d="M103.341,59.577l-1.44-2.422h-1.128v2.422h-1.138V53.09h2.849c1.284,0,2.12,0.836,2.12,2.033
		c0,1.158-0.758,1.78-1.537,1.906l1.586,2.548H103.341z M103.438,55.123c0-0.622-0.467-1.031-1.108-1.031h-1.557v2.062h1.557
		C102.971,56.154,103.438,55.746,103.438,55.123z"/>
	<path d="M108.168,59.577v-5.485h-1.964V53.09h5.067v1.002h-1.965v5.485H108.168z"/>
	<path d="M120.76,59.577c-0.156-0.136-0.36-0.34-0.574-0.564c-0.487,0.409-1.089,0.68-1.819,0.68c-1.158,0-2.091-0.613-2.091-1.847
		c0-0.992,0.671-1.508,1.41-1.897c-0.273-0.487-0.457-0.973-0.457-1.42c0-0.875,0.749-1.537,1.76-1.537
		c0.886,0,1.605,0.486,1.605,1.332c0,0.982-0.817,1.41-1.624,1.799c0.223,0.301,0.457,0.584,0.641,0.797
		c0.214,0.263,0.429,0.516,0.642,0.749c0.301-0.467,0.525-0.972,0.641-1.351l0.836,0.379c-0.233,0.515-0.525,1.099-0.905,1.605
		c0.39,0.418,0.798,0.826,1.265,1.273H120.76z M119.612,58.42c-0.321-0.35-0.622-0.68-0.797-0.894
		c-0.234-0.282-0.487-0.603-0.719-0.934c-0.429,0.282-0.73,0.633-0.73,1.167c0,0.711,0.535,1.119,1.128,1.119
		C118.911,58.877,119.29,58.693,119.612,58.42z M118.581,55.532c0.613-0.292,1.109-0.603,1.109-1.158
		c0-0.399-0.282-0.622-0.652-0.622c-0.437,0-0.777,0.331-0.777,0.797C118.26,54.841,118.387,55.192,118.581,55.532z"/>
	<path d="M126.982,58.663l0.632-0.875c0.448,0.477,1.147,0.895,2.052,0.895c0.934,0,1.304-0.457,1.304-0.886
		c0-1.361-3.784-0.515-3.784-2.908c0-1.069,0.944-1.896,2.364-1.896c1.012,0,1.829,0.32,2.432,0.904l-0.652,0.847
		c-0.506-0.506-1.196-0.739-1.877-0.739c-0.671,0-1.099,0.321-1.099,0.807c0,1.206,3.774,0.457,3.774,2.88
		c0,1.08-0.759,2.003-2.51,2.003C128.421,59.694,127.555,59.276,126.982,58.663z"/>
	<path d="M134.153,59.577V53.09h2.849c1.362,0,2.12,0.933,2.12,2.033c0,1.099-0.768,2.033-2.12,2.033h-1.712v2.422H134.153z
		 M137.955,55.123c0-0.622-0.467-1.031-1.108-1.031h-1.557v2.062h1.557C137.489,56.154,137.955,55.746,137.955,55.123z"/>
	<path d="M144.855,59.577l-0.476-1.245h-2.977l-0.477,1.245h-1.293l2.549-6.487h1.42l2.548,6.487H144.855z M142.891,54.238
		l-1.167,3.092h2.334L142.891,54.238z"/>
</g>
</svg>
